<svg width="102" height="100" viewBox="0 0 102 100" fill="none" xmlns="http://www.w3.org/2000/svg">
<g clip-path="url(#clip0_4204_3145)" filter="url(#filter0_d_4204_3145)">
<g filter="url(#filter1_f_4204_3145)">
<path d="M46.9207 78.5281C44.3375 80.6339 42.1365 83.1538 40.4509 85.9357L19.4383 60.1419C21.1632 56.3103 24.108 52.9342 27.7864 50.5712C31.4647 48.2083 35.6565 46.9999 39.6692 47.1457L41.8984 47.218L62.2965 72.2574C56.8788 72.6377 51.4322 74.859 46.9207 78.5281ZM84.2837 50.2279C80.0826 51.7187 76.1911 54.251 73.045 57.5412C69.899 60.8314 67.6227 64.7495 66.471 68.8567L46.073 43.8173L46.455 41.6178C47.1246 37.6592 49.1556 33.7994 52.2128 30.6753C55.2701 27.5512 59.1708 25.3497 63.2711 24.4341L84.2837 50.2279Z" fill="black" fill-opacity="0.25"/>
</g>
<mask id="mask0_4204_3145" style="mask-type:alpha" maskUnits="userSpaceOnUse" x="18" y="18" width="65" height="63">
<path d="M45.5735 72.8548C42.9903 74.9606 40.7894 77.4805 39.1037 80.2624L18.0911 54.4686C19.816 50.637 22.7609 47.2608 26.4392 44.8979C30.1176 42.5349 34.3093 41.3265 38.322 41.4724L40.5513 41.5447L60.9493 66.5841C55.5316 66.9644 50.0851 69.1857 45.5735 72.8548ZM82.9366 44.5545C78.7354 46.0454 74.8439 48.5777 71.6979 51.8678C68.5518 55.158 66.2755 59.0761 65.1238 63.1833L44.7258 38.1439L45.1078 35.9444C45.7774 31.9859 47.8084 28.126 50.8657 25.002C53.9229 21.8779 57.8236 19.6764 61.924 18.7607L82.9366 44.5545Z" fill="black"/>
</mask>
<g mask="url(#mask0_4204_3145)">
<path d="M152.932 60.0056C152.006 60.8848 150.529 61.1982 148.826 60.877C147.123 60.5557 145.334 59.6262 143.852 58.2928C126.066 42.2919 123.796 40.5858 103.361 36.731C82.9258 32.8763 62.0653 29.8949 46.1184 38.5852C35.0047 49.1347 30.7501 63.9041 35.4681 82.678C45.8144 108.32 42.258 121.846 60.0438 137.846C61.526 139.18 62.5795 140.808 62.9727 142.372C63.3658 143.937 63.0664 145.31 62.1403 146.189C61.2141 147.068 59.7371 147.381 58.0342 147.06C56.3313 146.739 54.5419 145.809 53.0598 144.476C32.3096 125.808 17.5601 103.016 12.0558 81.113C6.55153 59.2101 10.7434 39.9908 23.7094 27.6831C36.6753 15.3753 57.3531 10.9874 81.194 15.4846C105.035 19.9818 130.086 32.9956 150.836 51.6633C152.318 52.9967 153.372 54.6247 153.765 56.1892C154.158 57.7537 153.859 59.1265 152.932 60.0056Z" fill="#EF4D4D"/>
<path d="M84.9837 53.2094C84.2322 53.9227 92.8277 58.6821 91.7767 58.719C90.7256 58.7559 69.7652 87.2149 69.0303 86.5538C66.0906 83.9092 69.7575 84.5008 65.5533 84.6483C61.3491 84.7959 67.9151 84.165 64.9092 87.0183C61.9032 89.8716 61.2389 78.1892 61.1921 82.0768C61.1452 85.9644 56.6038 79.6178 59.5435 82.2624C60.2784 82.9236 57.3831 85.3638 57.3714 86.3357C57.3597 87.3076 54.8259 85.9941 54.0744 86.7074C53.3229 87.4207 65.1646 87.4274 64.1135 87.4643C63.0625 87.5012 51.7792 80.9634 51.0443 80.3023C46.6348 76.3354 44.197 70.8307 44.2673 64.9993C44.3375 59.1679 46.9101 53.4874 51.419 49.2074C55.928 44.9274 62.0039 42.3986 68.3102 42.1772C74.6165 41.9558 80.6366 44.06 85.0462 48.0269C85.7811 48.6881 86.1874 49.6055 86.1757 50.5774C86.164 51.5493 85.7352 52.4961 84.9837 53.2094Z" fill="#76DD50"/>
<path d="M119.873 59.8904C119.042 60.6793 117.769 61.0071 116.333 60.8018C114.897 60.5965 113.416 59.8748 112.216 58.7955C102.619 50.1612 95.4497 48.7427 83.962 47.1001C72.4742 45.4575 64.3254 44.4304 55.1053 50.3509C47.521 56.0575 44.8842 64.781 49.0234 75.0394C51.1084 85.6075 76.2783 94.1716 85.8756 102.806C87.0753 103.885 64.0981 108.817 64.3587 110.138C64.6194 111.459 64.2989 112.644 63.4678 113.433C62.6367 114.222 61.363 114.55 59.9271 114.344C58.4911 114.139 57.0104 113.417 55.8107 112.338C43.814 101.545 35.6102 88.0605 33.0039 74.8503C30.3977 61.6401 33.6026 49.7867 41.9136 41.8976C50.2245 34.0085 62.9607 30.73 77.3204 32.7832C91.6801 34.8365 106.487 42.0534 118.484 52.8463C119.683 53.9256 120.504 55.2741 120.764 56.5951C121.025 57.9161 120.705 59.1014 119.873 59.8904Z" fill="#FED402"/>
</g>
</g>
<defs>
<filter id="filter0_d_4204_3145" x="-4" y="0" width="109.596" height="107.72" filterUnits="userSpaceOnUse" color-interpolation-filters="sRGB">
<feFlood flood-opacity="0" result="BackgroundImageFix"/>
<feColorMatrix in="SourceAlpha" type="matrix" values="0 0 0 0 0 0 0 0 0 0 0 0 0 0 0 0 0 0 127 0" result="hardAlpha"/>
<feOffset dy="4"/>
<feGaussianBlur stdDeviation="2"/>
<feComposite in2="hardAlpha" operator="out"/>
<feColorMatrix type="matrix" values="0 0 0 0 0 0 0 0 0 0 0 0 0 0 0 0 0 0 0.25 0"/>
<feBlend mode="normal" in2="BackgroundImageFix" result="effect1_dropShadow_4204_3145"/>
<feBlend mode="normal" in="SourceGraphic" in2="effect1_dropShadow_4204_3145" result="shape"/>
</filter>
<filter id="filter1_f_4204_3145" x="15.4385" y="20.4341" width="72.8452" height="69.5015" filterUnits="userSpaceOnUse" color-interpolation-filters="sRGB">
<feFlood flood-opacity="0" result="BackgroundImageFix"/>
<feBlend mode="normal" in="SourceGraphic" in2="BackgroundImageFix" result="shape"/>
<feGaussianBlur stdDeviation="2" result="effect1_foregroundBlur_4204_3145"/>
</filter>
<clipPath id="clip0_4204_3145">
<rect width="78.0741" height="65.0186" fill="white" transform="translate(0 49.311) rotate(-39.1675)"/>
</clipPath>
</defs>
</svg>
