<svg width="42" height="44" viewBox="0 0 42 44" fill="none" xmlns="http://www.w3.org/2000/svg">
<g filter="url(#filter0_d_4204_3153)">
<path d="M30.8453 35.0768C30.5505 35.2175 30.2439 35.2167 29.9254 35.0745L13.5763 28.1179C13.4121 28.0655 13.1736 27.9669 12.8608 27.822C12.548 27.677 12.0253 27.3912 11.2927 26.9645C10.5601 26.5377 9.86491 26.0727 9.20712 25.5694C8.54933 25.0661 7.86169 24.4055 7.14418 23.5874C6.42668 22.7694 5.85511 21.9144 5.42946 21.0225C4.03182 18.0938 3.6591 15.4605 4.31129 13.1226C4.96347 10.7847 6.55944 9.00973 9.09919 7.79772C9.80215 7.46225 10.5876 7.26313 11.4555 7.20035C12.3234 7.13757 13.1879 7.19898 14.0491 7.38458C14.9102 7.57019 15.6692 7.76777 16.326 7.97733C16.9828 8.1869 17.6297 8.43391 18.2666 8.71837C18.446 8.04433 18.6609 7.3861 18.9111 6.74368C19.1613 6.10125 19.4852 5.38694 19.8825 4.60074C20.2799 3.81454 20.776 3.10383 21.3707 2.46862C21.9654 1.83341 22.6143 1.34807 23.3172 1.0126C25.857 -0.19941 28.2407 -0.323636 30.4684 0.639928C32.6961 1.60349 34.5088 3.54963 35.9064 6.47835C37.3104 9.42038 37.4416 13.0352 36.3 17.3228L31.4221 34.3603C31.3324 34.6973 31.1401 34.9362 30.8453 35.0768Z" fill="#EF4D4D"/>
</g>
<defs>
<filter id="filter0_d_4204_3153" x="0" y="0" width="41.0679" height="43.1816" filterUnits="userSpaceOnUse" color-interpolation-filters="sRGB">
<feFlood flood-opacity="0" result="BackgroundImageFix"/>
<feColorMatrix in="SourceAlpha" type="matrix" values="0 0 0 0 0 0 0 0 0 0 0 0 0 0 0 0 0 0 127 0" result="hardAlpha"/>
<feOffset dy="4"/>
<feGaussianBlur stdDeviation="2"/>
<feComposite in2="hardAlpha" operator="out"/>
<feColorMatrix type="matrix" values="0 0 0 0 0 0 0 0 0 0 0 0 0 0 0 0 0 0 0.25 0"/>
<feBlend mode="normal" in2="BackgroundImageFix" result="effect1_dropShadow_4204_3153"/>
<feBlend mode="normal" in="SourceGraphic" in2="effect1_dropShadow_4204_3153" result="shape"/>
</filter>
</defs>
</svg>
