<svg width="50" height="48" viewBox="0 0 50 48" fill="none" xmlns="http://www.w3.org/2000/svg">
<g filter="url(#filter0_d_4204_3155)">
<path d="M4.29958 38.5957C4.04135 38.2825 3.95012 37.9126 4.02589 37.4859L7.49921 15.6823C7.51302 15.4686 7.5603 15.1514 7.64103 14.7307C7.72177 14.31 7.90929 13.5939 8.20358 12.5823C8.49788 11.5707 8.84959 10.5927 9.2587 9.64831C9.66781 8.70392 10.2577 7.67622 11.0283 6.56523C11.799 5.45424 12.658 4.50809 13.6055 3.72678C16.7166 1.16129 19.7796 -0.0796535 22.7945 0.00395936C25.8094 0.0875721 28.4292 1.47833 30.6539 4.17624C31.2697 4.92298 31.7459 5.81014 32.0825 6.83771C32.419 7.86528 32.6049 8.92611 32.6399 10.0202C32.675 11.1143 32.6649 12.0888 32.6097 12.9437C32.5544 13.7987 32.451 14.6528 32.2995 15.5062C33.1661 15.52 34.0243 15.5812 34.8741 15.6898C35.724 15.7984 36.6825 15.9741 37.7499 16.217C38.8173 16.4598 39.8233 16.8443 40.768 17.3704C41.7126 17.8965 42.4929 18.533 43.1086 19.2797C45.3334 21.9776 46.1997 24.8144 45.7075 27.79C45.2154 30.7656 43.4137 33.5362 40.3026 36.1017C37.1774 38.6788 32.8584 39.9236 27.3456 39.8359L5.33691 39.0757C4.90359 39.0688 4.55781 38.9088 4.29958 38.5957Z" fill="#FED402"/>
</g>
<defs>
<filter id="filter0_d_4204_3155" x="0" y="0" width="49.8413" height="47.8403" filterUnits="userSpaceOnUse" color-interpolation-filters="sRGB">
<feFlood flood-opacity="0" result="BackgroundImageFix"/>
<feColorMatrix in="SourceAlpha" type="matrix" values="0 0 0 0 0 0 0 0 0 0 0 0 0 0 0 0 0 0 127 0" result="hardAlpha"/>
<feOffset dy="4"/>
<feGaussianBlur stdDeviation="2"/>
<feComposite in2="hardAlpha" operator="out"/>
<feColorMatrix type="matrix" values="0 0 0 0 0 0 0 0 0 0 0 0 0 0 0 0 0 0 0.25 0"/>
<feBlend mode="normal" in2="BackgroundImageFix" result="effect1_dropShadow_4204_3155"/>
<feBlend mode="normal" in="SourceGraphic" in2="effect1_dropShadow_4204_3155" result="shape"/>
</filter>
</defs>
</svg>
