<svg width="58" height="57" viewBox="0 0 58 57" fill="none" xmlns="http://www.w3.org/2000/svg">
<g clip-path="url(#clip0_4204_3138)">
<g filter="url(#filter0_f_4204_3138)">
<path d="M10.6651 46.0395C9.84858 45.8304 9.24375 45.4741 8.47561 45.076C8.03408 44.7615 7.64097 44.2579 7.41116 43.7962L7.29626 43.5653C7.18136 43.3344 7.11486 42.9145 7.16327 42.7255C7.26008 42.3473 7.4718 42.2001 7.84683 42.0947C9.34693 41.673 10.829 40.6423 11.8694 39.2971C12.0812 39.1498 12.2929 39.0026 12.3413 38.8135C8.59154 34.4287 7.12227 28.6133 8.52608 23.1306C10.9464 13.6777 21.4716 7.91166 31.7602 10.546C42.0487 13.1803 48.5077 23.2951 46.0873 32.748C43.6669 42.2009 33.1417 47.9669 22.8532 45.3326C21.8734 45.0817 20.7302 44.789 19.7988 44.3491C16.7198 46.1796 13.4414 46.7504 10.6651 46.0395Z" fill="black" fill-opacity="0.25"/>
</g>
<mask id="mask0_4204_3138" style="mask-type:alpha" maskUnits="userSpaceOnUse" x="5" y="7" width="41" height="38">
<path d="M9.24862 43.9145C8.43207 43.7054 7.82724 43.3491 7.0591 42.951C6.61758 42.6365 6.22446 42.1329 5.99466 41.6712L5.87976 41.4403C5.76485 41.2094 5.69836 40.7895 5.74677 40.6005C5.84358 40.2223 6.0553 40.0751 6.43032 39.9697C7.93043 39.548 9.41245 38.5173 10.4529 37.1721C10.6647 37.0248 10.8764 36.8776 10.9248 36.6885C7.17504 32.3037 5.70577 26.4883 7.10957 21.0056C9.52993 11.5527 20.0551 5.78666 30.3436 8.42097C40.6322 11.0553 47.0912 21.1701 44.6708 30.623C42.2504 40.0759 31.7252 45.8419 21.4367 43.2076C20.4569 42.9567 19.3137 42.664 18.3823 42.2241C15.3033 44.0546 12.0249 44.6254 9.24862 43.9145Z" fill="black"/>
</mask>
<g mask="url(#mask0_4204_3138)">
<path d="M79.3068 51.2105C78.6524 51.4958 77.8088 51.3657 76.9617 50.8489C76.1146 50.3321 75.3333 49.4709 74.7896 48.4548C68.2663 36.2612 67.3718 34.8855 57.2062 28.6839C47.0406 22.4823 36.4881 16.6641 26.405 18.1114C18.5521 21.5347 13.5734 28.612 12.6333 39.6548C13.4258 55.5263 9.04734 62.0761 15.5707 74.2697C16.1143 75.2859 16.3757 76.3737 16.2974 77.294C16.219 78.2142 15.8074 78.8914 15.153 79.1767C14.4986 79.462 13.655 79.3319 12.8079 78.8151C11.9607 78.2983 11.1794 77.4371 10.6358 76.421C3.0252 62.1951 -0.634206 46.9653 0.46261 34.0821C1.55943 21.1988 7.32262 11.7173 16.4844 7.72352C25.6461 3.7297 37.4559 5.55067 49.3157 12.7858C61.1756 20.021 72.114 32.0777 79.7246 46.3036C80.2682 47.3197 80.5296 48.4075 80.4512 49.3278C80.3729 50.248 79.9612 50.9253 79.3068 51.2105Z" fill="#EF4D4D"/>
<path d="M44.4073 33.8261C43.8762 34.0576 47.576 38.3536 47.0099 38.161C46.4437 37.9683 30.0568 49.0284 29.7872 48.5245C28.7087 46.5086 30.5516 47.5679 28.2869 46.7973C26.0222 46.0267 29.6328 47.015 27.5084 47.941C25.3841 48.867 27.178 42.4531 26.4385 44.5333C25.6989 46.6136 24.4485 42.284 25.5269 44.2998C25.7965 44.8038 23.807 45.5302 23.6221 46.0502C23.4372 46.5703 22.3302 45.352 21.7991 45.5835C21.268 45.815 27.5692 48.2125 27.003 48.0199C26.4368 47.8272 21.6334 42.0319 21.3638 41.528C19.7461 38.5042 19.4605 35.0525 20.5698 31.9321C21.6792 28.8118 24.0925 26.2784 27.279 24.8893C30.4655 23.5003 34.1641 23.3693 37.5612 24.5252C40.9582 25.6811 43.7755 28.0292 45.3932 31.053C45.6628 31.557 45.7104 32.1323 45.5255 32.6523C45.3406 33.1724 44.9384 33.5946 44.4073 33.8261Z" fill="#76DD50"/>
<path d="M61.7231 44.454C61.1359 44.71 60.398 44.6288 59.6717 44.2283C58.9454 43.8278 58.2902 43.1408 57.8503 42.3185C54.3307 35.7396 50.7769 33.5288 44.9665 30.3248C39.1561 27.1209 35.0092 24.9224 29.0153 26.2406C23.9312 27.7744 20.9249 31.9291 21.2419 38.2776C20.4089 44.3775 32.227 54.0653 35.7466 60.6441C36.1865 61.4665 23.0547 59.4734 22.9506 60.2359C22.8465 60.9984 22.4581 61.5706 21.8709 61.8265C21.2837 62.0825 20.5458 62.0013 19.8195 61.6008C19.0932 61.2003 18.438 60.5133 17.9981 59.691C13.5986 51.4675 11.712 42.5639 12.7532 34.939C13.7944 27.3141 17.6781 21.5924 23.5501 19.0327C29.422 16.473 36.8011 17.2849 44.0641 21.2899C51.327 25.2948 57.8789 32.1647 62.2783 40.3882C62.7183 41.2105 62.9069 42.1009 62.8028 42.8634C62.6987 43.6259 62.3103 44.198 61.7231 44.454Z" fill="#FED402"/>
</g>
</g>
<defs>
<filter id="filter0_f_4204_3138" x="3.14751" y="5.90674" width="47.4482" height="44.4287" filterUnits="userSpaceOnUse" color-interpolation-filters="sRGB">
<feFlood flood-opacity="0" result="BackgroundImageFix"/>
<feBlend mode="normal" in="SourceGraphic" in2="BackgroundImageFix" result="shape"/>
<feGaussianBlur stdDeviation="2" result="effect1_foregroundBlur_4204_3138"/>
</filter>
<clipPath id="clip0_4204_3138">
<rect width="46.8818" height="46.8376" fill="white" transform="translate(11.6177) rotate(14.3617)"/>
</clipPath>
</defs>
</svg>
