<svg width="73" height="73" viewBox="0 0 73 73" fill="none" xmlns="http://www.w3.org/2000/svg">
<g clip-path="url(#clip0_1105_9502)">
<g filter="url(#filter0_d_1105_9502)">
<path d="M60.3322 36.1735C60.335 37.7212 59.0176 38.982 57.3562 39.1297L48.6847 39.6761C48.3516 39.7425 48.0537 39.8834 47.791 40.0987C46.3558 41.6885 45.4067 42.9574 45.136 43.541C43.9663 46.4632 48.6629 54.0836 51.925 56.5504C52.1796 56.7034 52.3205 57.0013 52.2772 57.2951C52.2339 57.589 52.0809 57.8436 51.783 57.9844L39.4952 63.7944C39.2718 63.9001 38.9035 63.892 38.7234 63.7038C38.4688 63.5508 38.3631 63.3274 38.2968 62.9943C38.2883 58.3511 36.0788 46.5478 32.7883 45.37C32.6786 45.3308 32.3495 45.213 30.986 45.2199C30.4335 45.2077 29.9122 45.4542 29.5358 45.8144L23.5445 51.8365C22.1878 53.207 19.982 52.9743 18.8742 51.4023C18.0522 50.2419 18.2728 48.5885 19.3275 47.5431L24.3386 42.5312L23.1021 40.1089L19.3498 38.1471C17.7478 37.2644 17.2046 35.1521 18.3812 33.5934C19.2911 32.4343 20.9565 32.1024 22.3039 32.8321L27.5878 35.5276C27.7327 35.6414 27.8776 35.7551 27.948 35.9041L29.5325 39.2553L31.9618 39.3823L28.7546 31.0577L19.391 29.5623C18.6937 29.4364 17.9651 29.0519 17.5345 28.5265L12.5117 22.3361C11.4703 21.0972 11.6245 19.1108 12.9379 18.0342C14.2512 16.9576 16.1632 17.147 17.2398 18.4603L21.4718 23.749L27.6424 24.6584C27.9484 24.1493 28.3992 23.7539 28.9205 23.5074C30.41 22.8031 32.1649 23.4313 32.9436 24.8855L33.7761 22.2138L31.5226 17.4476C30.7479 15.8093 31.5683 13.6901 33.5317 13.2173C34.9033 12.8421 36.4348 13.5759 37.0687 14.9164L39.8152 20.7252C40.1321 21.3954 40.2256 22.1713 40.0253 22.9039L37.8365 31.9574L40.2661 37.096L43.4684 35.5818L43.1932 31.3382C43.1972 31.154 43.2013 30.9699 43.315 30.825L46.4845 25.7726C46.9435 25.0089 47.8019 24.5119 48.6523 24.3832C49.5771 24.2192 50.4545 24.5333 51.1398 25.2117C52.15 26.1919 52.3722 27.8182 51.6073 29.0911L49.4302 32.5807L49.4452 33.5759L57.0469 33.0797C58.8925 32.936 60.4079 34.4064 60.3322 36.1735Z" fill="white"/>
</g>
</g>
<defs>
<filter id="filter0_d_1105_9502" x="7.82837" y="13.1196" width="56.5066" height="58.7427" filterUnits="userSpaceOnUse" color-interpolation-filters="sRGB">
<feFlood flood-opacity="0" result="BackgroundImageFix"/>
<feColorMatrix in="SourceAlpha" type="matrix" values="0 0 0 0 0 0 0 0 0 0 0 0 0 0 0 0 0 0 127 0" result="hardAlpha"/>
<feOffset dy="4"/>
<feGaussianBlur stdDeviation="2"/>
<feComposite in2="hardAlpha" operator="out"/>
<feColorMatrix type="matrix" values="0 0 0 0 0 0 0 0 0 0 0 0 0 0 0 0 0 0 0.25 0"/>
<feBlend mode="normal" in2="BackgroundImageFix" result="effect1_dropShadow_1105_9502"/>
<feBlend mode="normal" in="SourceGraphic" in2="effect1_dropShadow_1105_9502" result="shape"/>
</filter>
<clipPath id="clip0_1105_9502">
<rect width="54.3686" height="54.3686" fill="white" transform="translate(0 23.2402) rotate(-25.3062)"/>
</clipPath>
</defs>
</svg>
