<svg width="86" height="86" viewBox="0 0 86 86" fill="none" xmlns="http://www.w3.org/2000/svg">
<g clip-path="url(#clip0_1105_9499)">
<g filter="url(#filter0_d_1105_9499)">
<path d="M65.5246 40.8575C50.8556 22.8509 28.6968 22.0379 18.2322 28.3601C13.5867 31.1556 11.6381 35.2205 13.105 39.276C10.2386 41.5011 8.9799 43.9795 9.84757 45.9481C11.3857 49.4378 17.6647 48.1664 21.1545 46.6283C45.5694 37.0428 60.1315 44.6237 61.9152 45.7611C64.6501 50.7539 68.2768 56.3153 70.6928 55.2504C72.9299 54.2644 71.0868 49.8404 70.1008 47.6034C73.1615 46.7887 76.4116 45.6768 77.041 44.4376C78.5893 41.4041 69.019 41.0271 65.5246 40.8575ZM21.6952 35.4898C21.3449 36.3922 20.4501 36.7866 19.5476 36.4363C18.6452 36.086 18.3008 35.0623 18.6011 34.2888C18.9013 33.5152 19.9751 33.042 20.7486 33.3422C21.6511 33.6925 22.0455 34.5873 21.6952 35.4898Z" fill="white"/>
</g>
<path d="M41.5566 43.9412C41.1185 47.554 42.42 50.5069 42.4595 50.5964C42.6172 50.9543 42.596 51.3911 42.2775 51.6383C42.2275 51.7673 42.0485 51.8461 41.9591 51.8856C41.7801 51.9645 41.4722 51.9933 41.2538 51.9827C36.4231 50.4785 33.5033 47.4908 31.9015 45.3114C35.4884 44.4785 38.7462 44.1113 41.5566 43.9412ZM51.7181 16.8072C51.8759 17.1651 51.8547 17.6019 51.5362 17.8491C51.4467 17.8886 48.1193 21.4924 47.7495 25.5025C43.6635 23.9907 39.6351 23.0946 35.6644 22.8143C37.9363 20.21 42.6241 16.5408 50.9158 16.199C51.1342 16.2096 51.4709 16.4887 51.7181 16.8072Z" fill="white"/>
</g>
<defs>
<filter id="filter0_d_1105_9499" x="5.57739" y="24.7744" width="75.6316" height="38.6084" filterUnits="userSpaceOnUse" color-interpolation-filters="sRGB">
<feFlood flood-opacity="0" result="BackgroundImageFix"/>
<feColorMatrix in="SourceAlpha" type="matrix" values="0 0 0 0 0 0 0 0 0 0 0 0 0 0 0 0 0 0 127 0" result="hardAlpha"/>
<feOffset dy="4"/>
<feGaussianBlur stdDeviation="2"/>
<feComposite in2="hardAlpha" operator="out"/>
<feColorMatrix type="matrix" values="0 0 0 0 0 0 0 0 0 0 0 0 0 0 0 0 0 0 0.25 0"/>
<feBlend mode="normal" in2="BackgroundImageFix" result="effect1_dropShadow_1105_9499"/>
<feBlend mode="normal" in="SourceGraphic" in2="effect1_dropShadow_1105_9499" result="shape"/>
</filter>
<clipPath id="clip0_1105_9499">
<rect width="64.5399" height="64.5399" fill="white" transform="translate(0 26.0303) rotate(-23.7858)"/>
</clipPath>
</defs>
</svg>
