<svg width="93" height="93" viewBox="0 0 93 93" fill="none" xmlns="http://www.w3.org/2000/svg">
<g clip-path="url(#clip0_1105_9495)">
<path d="M60.0022 22.9791C59.4631 22.8178 58.7627 23.1955 58.6013 23.7346C58.4077 24.3815 58.7099 24.9419 59.3568 25.1355C59.8959 25.2969 60.5641 25.0269 60.7577 24.38C60.9191 23.8409 60.6491 23.1727 60.0022 22.9791ZM47.4951 19.2358C46.8482 19.0422 46.2555 19.4522 46.0942 19.9913C45.9006 20.6382 46.2028 21.1986 46.8497 21.3922C47.3888 21.5535 48.057 21.2836 48.2506 20.6367C48.4119 20.0976 48.0342 19.3971 47.4951 19.2358Z" fill="white"/>
<g filter="url(#filter0_d_1105_9495)">
<path d="M77.357 38.3944C77.3817 26.5364 68.632 15.3418 56.5561 11.7275C44.5881 8.14554 31.1269 12.6926 24.5575 22.4742C23.5021 24.038 23.3848 26 24.2591 27.7889C25.1334 29.5778 26.8373 30.5577 28.7993 30.675C34.1463 30.8656 40.7871 31.4434 48.7657 33.8314C54.9115 35.6708 61.8017 38.5553 69.6308 43.0132C71.119 43.9285 73.081 44.0458 74.8267 42.9236C76.3999 41.9847 77.3798 40.2808 77.357 38.3944ZM46.2043 23.549C44.3713 23.0004 43.3892 21.1792 43.9378 19.3463C44.4864 17.5134 46.3075 16.5312 48.1405 17.0798C49.8656 17.5961 50.9556 19.4496 50.407 21.2825C49.8584 23.1154 47.9294 24.0653 46.2043 23.549ZM58.7114 27.2923C56.8784 26.7437 55.8963 24.9226 56.4449 23.0896C56.9935 21.2567 58.8146 20.2745 60.6476 20.8231C62.4805 21.3717 63.4627 23.1929 62.9141 25.0258C62.3655 26.8588 60.5443 27.8409 58.7114 27.2923Z" fill="white"/>
</g>
<g filter="url(#filter1_d_1105_9495)">
<path d="M60.6833 42.6847C61.3515 42.4148 61.9441 42.0047 62.5045 41.7025C57.5873 39.291 52.7889 37.2675 48.0449 35.8476C42.9773 34.3309 38.611 33.6115 34.8593 33.1935C35.086 33.6138 35.2803 34.1419 35.507 34.5621C31.4007 52.5996 25.6665 53.7028 22.8708 64.6139C22.7094 65.153 23.0872 65.8534 23.6263 66.0148C24.2732 66.2084 24.8658 65.7984 25.0272 65.2593C27.5648 55.2108 33.0723 53.6873 37.1904 37.1806C38.3016 38.5704 39.7685 39.9493 41.4079 41.1448C35.0226 52.2738 34.6012 67.4199 27.7067 74.7547C27.3298 75.2292 27.3518 75.9407 27.8263 76.3177C28.3009 76.6947 28.9801 76.7805 29.3893 76.1981C36.8331 68.2054 37.1144 53.1349 43.4352 42.2215C44.2332 42.6953 45.1713 43.0936 46.1417 43.384C43.6945 59.8034 39.0802 59.1272 35.04 79.2991C34.8787 79.8382 35.2887 80.4308 35.8278 80.5921C36.3992 80.6457 37.0673 80.3757 37.261 79.7288C41.2044 59.8805 45.7863 60.6644 48.3304 43.9216C49.6565 44.201 50.907 44.3403 52.1899 44.3718C47.8364 63.6276 44.9686 63.0042 44.3213 78.905C44.2677 79.4764 44.7856 80.1013 45.3892 80.047C45.9606 80.1005 46.5855 79.5827 46.5312 78.979C47.114 63.2939 49.896 64.5964 54.4643 44.2302C55.6716 44.1217 56.8033 43.873 57.8595 43.4842C52.0494 60.5418 58.4408 58.8129 52.3687 70.858C52.0995 71.3648 52.3372 72.1408 52.844 72.41C53.3508 72.6791 54.0946 72.5493 54.396 71.9346C57.6796 65.2813 57.5915 62.4355 57.5247 59.1261C57.4256 55.9245 57.3045 52.0115 60.6833 42.6847Z" fill="white"/>
</g>
</g>
<defs>
<filter id="filter0_d_1105_9495" x="19.6763" y="10.5107" width="61.6812" height="41.2217" filterUnits="userSpaceOnUse" color-interpolation-filters="sRGB">
<feFlood flood-opacity="0" result="BackgroundImageFix"/>
<feColorMatrix in="SourceAlpha" type="matrix" values="0 0 0 0 0 0 0 0 0 0 0 0 0 0 0 0 0 0 127 0" result="hardAlpha"/>
<feOffset dy="4"/>
<feGaussianBlur stdDeviation="2"/>
<feComposite in2="hardAlpha" operator="out"/>
<feColorMatrix type="matrix" values="0 0 0 0 0 0 0 0 0 0 0 0 0 0 0 0 0 0 0.25 0"/>
<feBlend mode="normal" in2="BackgroundImageFix" result="effect1_dropShadow_1105_9495"/>
<feBlend mode="normal" in="SourceGraphic" in2="effect1_dropShadow_1105_9495" result="shape"/>
</filter>
<filter id="filter1_d_1105_9495" x="18.8332" y="33.1934" width="47.6714" height="55.4053" filterUnits="userSpaceOnUse" color-interpolation-filters="sRGB">
<feFlood flood-opacity="0" result="BackgroundImageFix"/>
<feColorMatrix in="SourceAlpha" type="matrix" values="0 0 0 0 0 0 0 0 0 0 0 0 0 0 0 0 0 0 127 0" result="hardAlpha"/>
<feOffset dy="4"/>
<feGaussianBlur stdDeviation="2"/>
<feComposite in2="hardAlpha" operator="out"/>
<feColorMatrix type="matrix" values="0 0 0 0 0 0 0 0 0 0 0 0 0 0 0 0 0 0 0.25 0"/>
<feBlend mode="normal" in2="BackgroundImageFix" result="effect1_dropShadow_1105_9495"/>
<feBlend mode="normal" in="SourceGraphic" in2="effect1_dropShadow_1105_9495" result="shape"/>
</filter>
<clipPath id="clip0_1105_9495">
<rect width="74.2801" height="74.2801" fill="white" transform="translate(21.2982) rotate(16.6622)"/>
</clipPath>
</defs>
</svg>
